<?xml version="1.0" encoding="utf-8"?>
<!-- Generator: Adobe Illustrator 14.0.0, SVG Export Plug-In . SVG Version: 6.00 Build 43363)  -->
<!DOCTYPE svg PUBLIC "-//W3C//DTD SVG 1.1//EN" "http://www.w3.org/Graphics/SVG/1.1/DTD/svg11.dtd">
<svg version="1.1" id="Layer_1" xmlns="http://www.w3.org/2000/svg" xmlns:xlink="http://www.w3.org/1999/xlink" x="0px"
     y="0px"
     width="256px" height="256px" viewBox="0 0 256 256" enable-background="new 0 0 256 256" xml:space="preserve">
<g id="surface1">
	<path fill="#FFC20E" d="M165.207,112.516c3.352-4.426,6.621-8.691,9.645-12.875h51.652l20.105-26.16h-54.023
		c11.605-18.777,16.672-31.57,13.324-34.441c-0.738-0.656-2.043-0.738-3.68-0.246c-4.004,1.148-8.91,4.676-12.34,7.301
		c-3.516,2.621-7.52,5.984-11.934,9.84c-9.727,8.609-9.316,8.363-0.574,0.984c4.906-4.102,8.828-6.973,11.77-8.449
		c0.902-0.41,1.637-0.738,2.371-0.902c1.063-0.242,1.797-0.242,2.289,0.164c2.371,1.969-2.125,11.566-11.441,25.75
		c-10.707,16.402-27.953,39.117-48.387,63.309l-1.469,1.723c-11.117,13.121-21.988,25.258-31.957,35.754h64.648v-36.902h56.723
		l18.879-24.52h-75.602V112.516z"/>
    <path fill="#FFC20E" d="M136.848,206.332v-1.148h2.695l-2.695-13.285v-1.887h0.816l4.738,22.551h-1.551l-1.145-6.23H136.848z
		 M159.977,212.48l0.652-22.551h1.473l4.738,20.34l4.824-20.34h1.551l0.656,22.551h-1.309l-0.57-18.859l-4.578,18.859h-1.063
		l-4.496-18.859l-0.57,18.859H159.977z M192.504,212.48V189.93h7.766v1.23h-6.293v9.02h5.148v1.148h-5.148v9.922h6.293v1.23H192.504
		z M222.746,212.809c-3.27,0-5.066-1.965-5.395-5.82l1.309-0.41c0.082,0.656,0.16,1.23,0.324,1.641
		c0.082,0.492,0.246,0.902,0.492,1.395c0.246,0.41,0.488,0.816,0.734,1.063c0.328,0.246,0.656,0.492,1.063,0.656
		c0.41,0.164,0.98,0.246,1.473,0.246c2.371,0,3.594-1.227,3.594-3.605c0-0.902-0.242-1.805-0.734-2.543
		c-0.488-0.738-1.227-1.641-2.207-2.625l-4.086-4.102c-1.309-1.309-1.961-2.703-1.961-4.262c0-1.477,0.406-2.625,1.309-3.363
		c0.898-0.82,2.043-1.23,3.594-1.23h0.082c1.637,0,2.859,0.41,3.68,1.313c0.898,0.902,1.387,2.297,1.469,4.348l-1.309,0.328
		c-0.16-1.641-0.488-2.789-1.063-3.609c-0.57-0.738-1.469-1.148-2.695-1.148h-0.164c-1.063,0-1.961,0.328-2.613,0.82
		c-0.656,0.574-0.98,1.395-0.98,2.461c0,0.574,0.16,1.148,0.406,1.723s0.656,1.148,1.309,1.719l4.086,4.02
		c1.063,1.066,1.879,2.051,2.453,3.035c0.57,0.984,0.898,2.051,0.898,3.117c0,1.641-0.492,2.867-1.391,3.688
		C225.441,212.398,224.215,212.809,222.746,212.809z M108.402,212.809c-0.816,0-1.551-0.082-2.207-0.328
		c-0.652-0.242-1.145-0.492-1.551-0.898c-0.41-0.41-0.734-0.902-0.98-1.477s-0.41-1.23-0.492-1.887s-0.164-1.395-0.164-2.215v-9.594
		c0-0.82,0.082-1.559,0.164-2.215s0.246-1.23,0.574-1.805c0.242-0.574,0.57-1.066,0.98-1.395c0.406-0.41,0.898-0.656,1.551-0.902
		c0.656-0.246,1.391-0.328,2.207-0.328c1.879,0,3.188,0.574,4.004,1.641c0.82,1.066,1.227,2.707,1.227,4.758v0.82h-1.469v-0.902
		c0-1.723-0.246-3.035-0.82-3.855c-0.57-0.82-1.551-1.23-2.941-1.23c-0.652,0-1.227,0.082-1.715,0.246
		c-0.492,0.164-0.816,0.41-1.145,0.738s-0.492,0.656-0.652,1.148c-0.164,0.492-0.328,0.984-0.328,1.477
		c-0.082,0.492-0.082,1.148-0.082,1.805v9.84c0,0.902,0.082,1.641,0.164,2.215c0.082,0.656,0.324,1.148,0.57,1.641
		c0.328,0.492,0.734,0.902,1.227,1.148s1.145,0.328,1.961,0.328c0.734,0,1.309-0.086,1.797-0.328
		c0.492-0.246,0.902-0.574,1.145-1.066c0.246-0.492,0.492-1.066,0.574-1.641c0.082-0.656,0.164-1.395,0.164-2.215v-3.281h-3.598
		v-1.148h4.984v10.742h-0.98l-0.242-2.539C111.918,211.906,110.527,212.809,108.402,212.809z M136.848,190.012v1.887v-0.082
		l-2.699,13.367h2.699v1.148h-2.945l-1.223,6.23h-1.473l4.738-22.551H136.848z"/>
    <path fill="#FFFFFF" d="M134.313,115.469c1.227-1.723,2.289-3.773,3.105-6.066c0.816-2.297,1.227-5.004,1.227-7.957
		c0-4.59-0.898-8.691-2.781-12.137c-1.879-3.445-4.492-6.395-7.926-8.691c-3.434-2.379-7.602-4.102-12.422-5.25
		c-4.824-1.148-10.301-1.723-16.266-1.723l-67.266,0.004l-20.188,26.16l88.844-0.004c2.207,0,4.168,0.492,5.965,1.395
		s2.699,2.625,2.699,5.086c0,2.625-0.902,4.426-2.617,5.328c-1.715,0.984-3.758,1.395-6.047,1.395H76.285v0.004H11.801v61.258h64.57
		v-0.004h5.879c-1.715,1.723-3.758,3.855-5.965,6.07v-0.004c-8.258,8.285-19.289,18.781-27.871,23.621
		c-0.816,0.41-1.555,0.82-2.207,1.063c-1.637,0.656-2.781,0.738-3.434,0.164c-3.676-3.195,11.523-22.797,11.523-22.797
		c-11.031,12.137-23.129,31.82-18.063,36.082c0.98,0.82,2.617,0.738,4.906-0.164c2.043-0.816,4.574-2.211,7.52-4.262
		c1.145-0.82,2.367-1.641,3.594-2.625c6.457-4.84,14.629-11.645,24.031-20.254c5.555-5.082,11.523-10.742,17.734-16.895
		c11.523-11.48,23.945-24.684,36.207-39.031c1.715-2.051,3.434-4.02,5.066-6.07c-0.488-0.492-0.98-1.066-1.473-1.477
		c-1.797-1.723-3.758-3.035-5.965-4.102c-0.98-0.41-1.879-0.82-2.941-1.148c1.715-0.57,3.352-1.473,5.066-2.621
		C131.617,118.668,133.086,117.191,134.313,115.469z M107.422,146.551c-1.469,1.227-3.922,1.801-7.355,1.801H76.285v0.004H42.941
		v-13.859h57.125c3.434,0,5.887,0.574,7.355,1.719c1.473,1.148,2.289,2.871,2.289,5.086
		C109.711,143.598,108.977,145.402,107.422,146.551z"/>
</g>
</svg>
