<svg width="40" height="40" viewBox="0 0 40 40" fill="none" xmlns="http://www.w3.org/2000/svg">
    <rect width="40" height="40" rx="10" fill="url(#paint0_linear_3_4313)"/>
    <path d="M14.6873 16.9534C14.9275 15.781 14.4951 14.9464 13.7121 14.3964C12.9963 13.9188 12.0932 13.8465 11.142 14.3241L7.16434 16.1187C6.16512 16.5722 5.73757 17.7445 6.16512 18.7239C6.61669 19.7274 7.76002 20.1567 8.75924 19.7274L9.28287 19.4861L8.42777 24.1513C8.18757 25.56 9.09551 26.7082 10.3349 26.9494C11.6464 27.1907 12.929 26.3271 13.1452 25.01L14.6873 16.9534Z"
          fill="white"/>
    <path d="M15.11 14.0009C15.6336 14.6232 16.2533 15.3903 15.9411 17.2525L15.134 21.633L15.2781 25.15C15.3021 26.4188 15.9218 26.9688 16.9691 26.9688H19.6353C20.4664 26.9688 20.8267 26.3223 21.1581 25.5118L23.1806 20.5137L23.3968 25.2947C23.4208 26.3464 23.9444 26.9929 24.9196 26.9929H27.9461C28.8012 26.9929 29.1615 26.467 29.541 25.5359L33.4225 15.9692C33.8501 14.9898 33.5907 14.0105 32.5434 14.0105H30.6122C29.8965 14.0105 29.3969 14.2517 29.1134 14.9416L26.4905 21.3435L26.2503 15.6267C26.2022 14.4061 25.6306 14.0009 24.9388 14.0009H22.9644C22.1766 14.0009 21.725 14.3096 21.4896 14.9078L18.8715 21.3677L18.6313 15.4819C18.6072 14.382 18.2277 14.0009 17.3438 14.0009H15.6288H15.11Z"
          fill="white"/>
    <defs>
        <linearGradient id="paint0_linear_3_4313" x1="2.42403e-07" y1="2.14286" x2="23.9086" y2="46.6044"
                        gradientUnits="userSpaceOnUse">
            <stop stop-color="#1BF1FF"/>
            <stop offset="1" stop-color="#0855C4"/>
        </linearGradient>
    </defs>
</svg>
