<!DOCTYPE svg PUBLIC "-//W3C//DTD SVG 1.1//EN" "http://www.w3.org/Graphics/SVG/1.1/DTD/svg11.dtd">
<!-- Uploaded to: SVG Repo, www.svgrepo.com, Transformed by: SVG Repo Mixer Tools -->
<svg width="800px" height="800px" viewBox="-4.06 0 48.118 48.118" xmlns="http://www.w3.org/2000/svg" fill="#ffffff">
<g id="SVGRepo_bgCarrier" stroke-width="0"/>
<g id="SVGRepo_tracerCarrier" stroke-linecap="round" stroke-linejoin="round"/>
<g id="SVGRepo_iconCarrier"> <g id="_14" data-name="14" transform="translate(-241 -450.348)"> <path id="Path_180" data-name="Path 180" d="M276.113,458.064c.409-1.311.383-3.371-2.062-5.738a6.14,6.14,0,0,0-4.263-1.978c-4.359,0-7.406,5.965-8.964,9.98-1.558-4.015-4.605-9.98-8.964-9.98a6.142,6.142,0,0,0-4.263,1.978c-2.445,2.367-2.471,4.427-2.062,5.738,1.6,5.137,12.592,7.209,14.779,7.572a1.541,1.541,0,0,0,.243.02,1.286,1.286,0,0,1,.534,0,1.552,1.552,0,0,0,.243-.02C263.521,465.273,274.511,463.2,276.113,458.064Zm-27.743-.884c-.233-.749.2-1.664,1.293-2.721a3.341,3.341,0,0,1,2.2-1.141c2.381,0,4.965,4.642,6.507,8.9C254.011,461.194,249.028,459.288,248.37,457.18Zm24.908,0c-.655,2.1-5.633,4.009-9.988,5.033,1.411-3.852,3.959-8.894,6.5-8.894a3.341,3.341,0,0,1,2.2,1.141C273.076,455.516,273.511,456.431,273.278,457.179Z" fill="#ffffff"/> <rect id="Rectangle_59" data-name="Rectangle 59" width="18" height="9" transform="translate(241 467.466)" fill="#ffffff"/> <rect id="Rectangle_60" data-name="Rectangle 60" width="18" height="9" transform="translate(263 467.466)" fill="#ffffff"/> <rect id="Rectangle_61" data-name="Rectangle 61" width="16" height="20" transform="translate(243 478.466)" fill="#ffffff"/> <rect id="Rectangle_62" data-name="Rectangle 62" width="16" height="20" transform="translate(263 478.466)" fill="#ffffff"/> </g> </g>
</svg>